<?xml version="1.0" encoding="UTF-8"?>
<svg version="1.1" xmlns="http://www.w3.org/2000/svg" width="192" height="192">
<path d="M0 0 C1.5131898 0.04235908 3.02608912 0.09602971 4.53857422 0.15869141 C5.33480194 0.18371735 6.13102966 0.20874329 6.9513855 0.23452759 C9.49910476 0.31682088 12.04605946 0.41337293 14.59326172 0.51025391 C16.31849072 0.56848402 18.04375126 0.6257875 19.76904297 0.68212891 C24.00255709 0.82241331 28.23543979 0.97548903 32.46826172 1.13525391 C32.46826172 1.79525391 32.46826172 2.45525391 32.46826172 3.13525391 C29.82826172 4.12525391 27.18826172 5.11525391 24.46826172 6.13525391 C25.34393799 6.28559082 25.34393799 6.28559082 26.23730469 6.43896484 C57.92980671 11.95777763 57.92980671 11.95777763 67.46826172 24.88525391 C71.80296752 31.92915083 71.54231709 40.95366246 69.89013672 48.92431641 C65.91004743 60.03238378 57.0653527 69.33995977 48.46826172 77.13525391 C47.31789429 78.19824707 47.31789429 78.19824707 46.14428711 79.28271484 C38.36464368 85.73593096 32.15016286 86.14769411 22.28076172 85.63525391 C20.93386417 85.5950141 19.58684892 85.55853199 18.23974609 85.52587891 C14.97950311 85.43239524 11.7254677 85.30148682 8.46826172 85.13525391 C7.12479138 81.10484289 8.18389716 77.9811995 9.12060547 73.96728516 C9.29958878 73.17247238 9.47857208 72.37765961 9.66297913 71.5587616 C10.23647771 69.02000697 10.82097056 66.48392859 11.40576172 63.94775391 C11.79646224 62.22721561 12.18644512 60.50651418 12.57568359 58.78564453 C13.53155866 54.56690945 14.49730161 50.35054152 15.46826172 46.13525391 C14.1583728 46.09766968 14.1583728 46.09766968 12.82202148 46.05932617 C9.5922362 45.96437681 6.36262017 45.86513362 3.13305664 45.76293945 C1.73336972 45.71953957 0.33362813 45.67786827 -1.06616211 45.63793945 C-3.07435323 45.58035946 -5.08234978 45.51611391 -7.09033203 45.45166016 C-8.30003662 45.41500244 -9.50974121 45.37834473 -10.75610352 45.34057617 C-13.53173828 45.13525391 -13.53173828 45.13525391 -14.53173828 44.13525391 C-14.41725338 37.0768539 -12.76378184 30.296343 -10.96923828 23.51025391 C-10.73527344 22.60146484 -10.50130859 21.69267578 -10.26025391 20.75634766 C-9.69061139 18.54752974 -9.11439145 16.34066838 -8.53173828 14.13525391 C-16.22694635 15.6816546 -23.88848008 17.34960188 -31.53173828 19.13525391 C-32.32870117 19.31685059 -33.12566406 19.49844727 -33.94677734 19.68554688 C-38.13294555 20.68734023 -41.91827213 21.76197894 -45.53173828 24.13525391 C-47.61257593 27.73946342 -48.15054477 31.03315652 -48.53173828 35.13525391 C-48.86173828 37.11525391 -49.19173828 39.09525391 -49.53173828 41.13525391 C-39.63173828 41.13525391 -29.73173828 41.13525391 -19.53173828 41.13525391 C-19.53173828 46.59766592 -19.9566384 50.95841248 -21.21142578 56.15087891 C-21.4706633 57.25734772 -21.4706633 57.25734772 -21.73513794 58.38616943 C-22.09959391 59.93330889 -22.46788612 61.47954925 -22.83984375 63.02490234 C-23.40788868 65.39004375 -23.96085864 67.75835865 -24.51220703 70.12744141 C-24.86939149 71.63546462 -25.22743441 73.14328481 -25.58642578 74.65087891 C-25.83342728 75.71027679 -25.83342728 75.71027679 -26.0854187 76.79107666 C-26.88138581 80.0636141 -27.64047953 82.29836578 -29.53173828 85.13525391 C-32.36901153 85.4019293 -34.98556873 85.48316624 -37.82080078 85.42822266 C-38.63922455 85.42397781 -39.45764832 85.41973297 -40.3008728 85.4153595 C-42.91982664 85.3985407 -45.5380163 85.36088365 -48.15673828 85.32275391 C-49.93016468 85.30771116 -51.70360312 85.29402204 -53.47705078 85.28173828 C-57.82890858 85.24862683 -62.18019379 85.19682343 -66.53173828 85.13525391 C-66.53173828 84.47525391 -66.53173828 83.81525391 -66.53173828 83.13525391 C-65.50113281 82.73306641 -65.50113281 82.73306641 -64.44970703 82.32275391 C-63.098125 81.73494141 -63.098125 81.73494141 -61.71923828 81.13525391 C-60.37925781 80.57837891 -60.37925781 80.57837891 -59.01220703 80.01025391 C-52.7813327 75.30030166 -52.01858451 64.35354652 -50.34423828 57.13525391 C-50.07160156 55.97896484 -49.79896484 54.82267578 -49.51806641 53.63134766 C-48.85126849 50.80038105 -48.1892914 47.96837941 -47.53173828 45.13525391 C-60.93116532 44.06479805 -60.93116532 44.06479805 -73.19580078 48.22900391 C-76.05795517 51.03472145 -78.30371054 53.8054542 -80.53173828 57.13525391 C-81.23556641 58.18712891 -81.93939453 59.23900391 -82.66455078 60.32275391 C-88.08783579 69.10540169 -90.76226886 76.75428849 -89.53173828 87.13525391 C-87.24093279 94.97514649 -82.60367354 100.18859315 -75.53173828 104.13525391 C-70.97755334 106.12849136 -66.27956385 107.66970889 -61.53173828 109.13525391 C-61.42861328 108.04212891 -61.32548828 106.94900391 -61.21923828 105.82275391 C-60.55076916 100.49410007 -59.38503066 95.18082023 -57.53173828 90.13525391 C-54.68638104 88.71257528 -52.16955276 88.91553522 -48.99267578 88.81884766 C-47.69072266 88.77695313 -46.38876953 88.73505859 -45.04736328 88.69189453 C-43.66715783 88.65208091 -42.28694945 88.61236868 -40.90673828 88.57275391 C-39.51870413 88.52955984 -38.13068301 88.48594526 -36.74267578 88.44189453 C-33.33913572 88.3355339 -29.9355205 88.23350676 -26.53173828 88.13525391 C-23.7203619 80.27029912 -21.80106141 72.26205998 -19.90673828 64.13525391 C-19.29368452 61.50923496 -18.67579537 58.88451174 -18.05517578 56.26025391 C-17.78624512 55.10783203 -17.51731445 53.95541016 -17.24023438 52.76806641 C-16.53173828 50.13525391 -16.53173828 50.13525391 -15.53173828 49.13525391 C-13.60506321 49.04777183 -11.67521967 49.02828057 -9.74658203 49.03759766 C-7.9918457 49.04243164 -7.9918457 49.04243164 -6.20166016 49.04736328 C-4.96996094 49.05574219 -3.73826172 49.06412109 -2.46923828 49.07275391 C-0.61588867 49.07952148 -0.61588867 49.07952148 1.27490234 49.08642578 C4.33940289 49.09825783 7.40380893 49.11474217 10.46826172 49.13525391 C11.86374295 53.3216976 10.64975974 56.71760011 9.66748047 60.88916016 C9.47104446 61.74581772 9.27460846 62.60247528 9.07221985 63.48509216 C8.65485559 65.29573973 8.23345943 67.10546193 7.80834961 68.91430664 C7.15807133 71.68790285 6.5242203 74.46489427 5.89208984 77.24267578 C5.48486737 79.00006476 5.07669615 80.75723423 4.66748047 82.51416016 C4.47780197 83.34750381 4.28812347 84.18084747 4.09269714 85.03944397 C2.69840951 90.90510611 2.69840951 90.90510611 0.46826172 93.13525391 C-2.51269531 93.45410156 -2.51269531 93.45410156 -6.28955078 93.54931641 C-6.95260223 93.56868256 -7.61565369 93.58804871 -8.29879761 93.60800171 C-10.41798005 93.66781344 -12.53721678 93.71418778 -14.65673828 93.76025391 C-16.09295997 93.79843236 -17.52915873 93.83748402 -18.96533203 93.87744141 C-22.48734857 93.9751621 -26.009119 94.05471267 -29.53173828 94.13525391 C-31.18173828 100.07525391 -32.83173828 106.01525391 -34.53173828 112.13525391 C-7.45223888 107.89704971 17.80601161 102.2306159 41.6315918 87.9753418 C42.23769287 87.69811279 42.84379395 87.42088379 43.46826172 87.13525391 C44.12826172 87.46525391 44.78826172 87.79525391 45.46826172 88.13525391 C27.27425815 99.84920141 8.75574185 108.28436203 -12.28173828 113.44775391 C-13.31097412 113.70250488 -14.34020996 113.95725586 -15.40063477 114.21972656 C-22.43075298 115.86917613 -29.32491392 116.72712378 -36.53173828 117.13525391 C-36.58797363 117.7647998 -36.64420898 118.3943457 -36.70214844 119.04296875 C-37.74534818 130.3488638 -37.74534818 130.3488638 -40.53173828 133.13525391 C-42.45841336 133.22273598 -44.38825689 133.24222725 -46.31689453 133.23291016 C-47.48671875 133.2296875 -48.65654297 133.22646484 -49.86181641 133.22314453 C-51.09351563 133.21476563 -52.32521484 133.20638672 -53.59423828 133.19775391 C-55.44758789 133.19098633 -55.44758789 133.19098633 -57.33837891 133.18408203 C-60.40287945 133.17224998 -63.4672855 133.15576564 -66.53173828 133.13525391 C-66.39131788 131.55415426 -66.24578393 129.9735083 -66.09814453 128.39306641 C-66.01765869 127.51279785 -65.93717285 126.6325293 -65.85424805 125.72558594 C-65.43562159 122.3632644 -64.58063245 119.35186269 -63.53173828 116.13525391 C-64.76923828 116.07337891 -66.00673828 116.01150391 -67.28173828 115.94775391 C-78.7998199 114.6740324 -88.48863294 108.76066379 -96.01611328 100.23291016 C-100.64313584 93.82901554 -100.2939262 86.733064 -99.53173828 79.13525391 C-95.92793725 65.27319134 -85.48302714 55.75727218 -75.53173828 46.13525391 C-76.52173828 45.47525391 -77.51173828 44.81525391 -78.53173828 44.13525391 C-77.94181749 36.02384298 -76.03648085 28.28231761 -74.09326172 20.41210938 C-73.52661028 18.11446096 -72.96999992 15.8145396 -72.41455078 13.51416016 C-72.05836307 12.05438233 -71.70161311 10.59474156 -71.34423828 9.13525391 C-71.17754639 8.44681396 -71.01085449 7.75837402 -70.83911133 7.04907227 C-69.64736845 2.25088408 -69.64736845 2.25088408 -68.53173828 1.13525391 C-66.60506321 1.04777183 -64.67521967 1.02828057 -62.74658203 1.03759766 C-61.57675781 1.04082031 -60.40693359 1.04404297 -59.20166016 1.04736328 C-57.96996094 1.05574219 -56.73826172 1.06412109 -55.46923828 1.07275391 C-53.61588867 1.07952148 -53.61588867 1.07952148 -51.72509766 1.08642578 C-48.66059711 1.09825783 -45.59619107 1.11474217 -42.53173828 1.13525391 C-41.2701914 5.31085317 -42.04267659 8.71375488 -42.96923828 12.88525391 C-43.11683594 13.58263672 -43.26443359 14.28001953 -43.41650391 14.99853516 C-43.78041861 16.712456 -44.15502896 18.42409971 -44.53173828 20.13525391 C-43.84660156 19.90338379 -43.16146484 19.67151367 -42.45556641 19.43261719 C-39.3153727 18.37192718 -36.17357789 17.31605815 -33.03173828 16.26025391 C-31.95408203 15.89544922 -30.87642578 15.53064453 -29.76611328 15.15478516 C-13.65721721 9.75241147 -13.65721721 9.75241147 -7.53173828 10.13525391 C-7.24298828 8.85650391 -6.95423828 7.57775391 -6.65673828 6.26025391 C-5.64376729 1.77423953 -4.96796027 0.19025646 0 0 Z M19.46826172 12.13525391 C18.43438936 16.40303979 17.41840674 20.67488589 16.40576172 24.94775391 C16.11121094 26.16269531 15.81666016 27.37763672 15.51318359 28.62939453 C15.23925781 29.79277344 14.96533203 30.95615234 14.68310547 32.15478516 C14.42650146 33.22833252 14.16989746 34.30187988 13.90551758 35.40795898 C13.23925135 38.21892415 13.23925135 38.21892415 14.46826172 41.13525391 C24.36826172 41.13525391 34.26826172 41.13525391 44.46826172 41.13525391 C43.29430737 47.00502567 42.12124636 52.76931269 40.70654297 58.56884766 C40.3891111 59.88972124 40.0720642 61.21068738 39.75537109 62.53173828 C39.26527153 64.56907795 38.77268596 66.6056907 38.27368164 68.64086914 C37.78562353 70.63600518 37.30775115 72.63335509 36.83154297 74.63134766 C36.54577393 75.80882568 36.26000488 76.98630371 35.96557617 78.19946289 C35.22330157 81.18409498 35.22330157 81.18409498 36.46826172 84.13525391 C39.82304594 81.15847354 43.15201029 78.15489047 46.46826172 75.13525391 C47.12052734 74.55130859 47.77279297 73.96736328 48.44482422 73.36572266 C57.15303396 65.19432036 63.31008039 54.73065862 63.96826172 42.69775391 C63.7057199 34.87619555 60.49582809 28.72609572 54.90576172 23.32275391 C45.29881901 15.69107045 31.61622187 11.97695333 19.46826172 12.13525391 Z " fill="#0492DB" transform="translate(110.53173828125,28.86474609375)"/>
<path d="M0 0 C1.5131898 0.04235908 3.02608912 0.09602971 4.53857422 0.15869141 C5.33480194 0.18371735 6.13102966 0.20874329 6.9513855 0.23452759 C9.49910476 0.31682088 12.04605946 0.41337293 14.59326172 0.51025391 C16.31849072 0.56848402 18.04375126 0.6257875 19.76904297 0.68212891 C24.00255709 0.82241331 28.23543979 0.97548903 32.46826172 1.13525391 C32.46826172 1.79525391 32.46826172 2.45525391 32.46826172 3.13525391 C29.82826172 4.12525391 27.18826172 5.11525391 24.46826172 6.13525391 C25.34393799 6.28559082 25.34393799 6.28559082 26.23730469 6.43896484 C57.92980671 11.95777763 57.92980671 11.95777763 67.46826172 24.88525391 C71.80296752 31.92915083 71.54231709 40.95366246 69.89013672 48.92431641 C65.91004743 60.03238378 57.0653527 69.33995977 48.46826172 77.13525391 C47.7013501 77.84391602 46.93443848 78.55257812 46.14428711 79.28271484 C38.36464368 85.73593096 32.15016286 86.14769411 22.28076172 85.63525391 C20.93386417 85.5950141 19.58684892 85.55853199 18.23974609 85.52587891 C14.97950311 85.43239524 11.7254677 85.30148682 8.46826172 85.13525391 C7.12479138 81.10484289 8.18389716 77.9811995 9.12060547 73.96728516 C9.29958878 73.17247238 9.47857208 72.37765961 9.66297913 71.5587616 C10.23647771 69.02000697 10.82097056 66.48392859 11.40576172 63.94775391 C11.79646224 62.22721561 12.18644512 60.50651418 12.57568359 58.78564453 C13.53155866 54.56690945 14.49730161 50.35054152 15.46826172 46.13525391 C14.1583728 46.09766968 14.1583728 46.09766968 12.82202148 46.05932617 C9.5922362 45.96437681 6.36262017 45.86513362 3.13305664 45.76293945 C1.73336972 45.71953957 0.33362813 45.67786827 -1.06616211 45.63793945 C-3.07435323 45.58035946 -5.08234978 45.51611391 -7.09033203 45.45166016 C-8.30003662 45.41500244 -9.50974121 45.37834473 -10.75610352 45.34057617 C-13.53173828 45.13525391 -13.53173828 45.13525391 -14.53173828 44.13525391 C-14.41725338 37.0768539 -12.76378184 30.296343 -10.96923828 23.51025391 C-10.73527344 22.60146484 -10.50130859 21.69267578 -10.26025391 20.75634766 C-9.69061139 18.54752974 -9.11439145 16.34066838 -8.53173828 14.13525391 C-21.48162851 16.75966148 -34.12620326 19.52972353 -46.53173828 24.13525391 C-46.53173828 23.14525391 -46.53173828 22.15525391 -46.53173828 21.13525391 C-16.70587776 9.70575299 -16.70587776 9.70575299 -7.53173828 10.13525391 C-7.24298828 8.85650391 -6.95423828 7.57775391 -6.65673828 6.26025391 C-5.64376729 1.77423953 -4.96796027 0.19025646 0 0 Z M19.46826172 12.13525391 C18.43438936 16.40303979 17.41840674 20.67488589 16.40576172 24.94775391 C16.11121094 26.16269531 15.81666016 27.37763672 15.51318359 28.62939453 C15.23925781 29.79277344 14.96533203 30.95615234 14.68310547 32.15478516 C14.42650146 33.22833252 14.16989746 34.30187988 13.90551758 35.40795898 C13.23925135 38.21892415 13.23925135 38.21892415 14.46826172 41.13525391 C24.36826172 41.13525391 34.26826172 41.13525391 44.46826172 41.13525391 C43.29430737 47.00502567 42.12124636 52.76931269 40.70654297 58.56884766 C40.3891111 59.88972124 40.0720642 61.21068738 39.75537109 62.53173828 C39.26527153 64.56907795 38.77268596 66.6056907 38.27368164 68.64086914 C37.78562353 70.63600518 37.30775115 72.63335509 36.83154297 74.63134766 C36.54577393 75.80882568 36.26000488 76.98630371 35.96557617 78.19946289 C35.22330157 81.18409498 35.22330157 81.18409498 36.46826172 84.13525391 C39.82304594 81.15847354 43.15201029 78.15489047 46.46826172 75.13525391 C47.12052734 74.55130859 47.77279297 73.96736328 48.44482422 73.36572266 C57.15303396 65.19432036 63.31008039 54.73065862 63.96826172 42.69775391 C63.7057199 34.87619555 60.49582809 28.72609572 54.90576172 23.32275391 C45.29881901 15.69107045 31.61622187 11.97695333 19.46826172 12.13525391 Z " fill="#E9891E" transform="translate(110.53173828125,28.86474609375)"/>
<path d="M0 0 C1.084021 0.00523682 2.16804199 0.01047363 3.28491211 0.01586914 C4.45473633 0.0190918 5.62456055 0.02231445 6.82983398 0.02563477 C8.0615332 0.03401367 9.29323242 0.04239258 10.56225586 0.05102539 C12.41560547 0.05779297 12.41560547 0.05779297 14.30639648 0.06469727 C17.37089703 0.07652931 20.43530307 0.09301366 23.49975586 0.11352539 C24.89523709 4.29996908 23.68125388 7.69587159 22.69897461 11.86743164 C22.5025386 12.7240892 22.3061026 13.58074677 22.10371399 14.46336365 C21.68634973 16.27401121 21.26495357 18.08373342 20.83984375 19.89257812 C20.18956547 22.66617433 19.55571444 25.44316575 18.92358398 28.22094727 C18.51636151 29.97833625 18.10819029 31.73550571 17.69897461 33.49243164 C17.50929611 34.3257753 17.31961761 35.15911896 17.12419128 36.01771545 C15.72990365 41.8833776 15.72990365 41.8833776 13.49975586 44.11352539 C10.51879883 44.43237305 10.51879883 44.43237305 6.74194336 44.52758789 C6.07889191 44.54695404 5.41584045 44.56632019 4.73269653 44.58627319 C2.61351409 44.64608493 0.49427736 44.69245927 -1.62524414 44.73852539 C-3.06146583 44.77670385 -4.49766459 44.8157555 -5.93383789 44.85571289 C-9.45585443 44.95343358 -12.97762486 45.03298416 -16.50024414 45.11352539 C-18.15024414 51.05352539 -19.80024414 56.99352539 -21.50024414 63.11352539 C5.57925526 58.87532119 30.83750575 53.20888738 54.66308594 38.95361328 C55.26918701 38.67638428 55.87528809 38.39915527 56.49975586 38.11352539 C57.15975586 38.44352539 57.81975586 38.77352539 58.49975586 39.11352539 C40.30575229 50.82747289 21.78723599 59.26263352 0.74975586 64.42602539 C-0.27947998 64.68077637 -1.30871582 64.93552734 -2.36914062 65.19799805 C-9.39925884 66.84744761 -16.29341978 67.70539526 -23.50024414 68.11352539 C-23.55647949 68.74307129 -23.61271484 69.37261719 -23.6706543 70.02124023 C-24.71385404 81.32713529 -24.71385404 81.32713529 -27.50024414 84.11352539 C-29.42691921 84.20100746 -31.35676275 84.22049873 -33.28540039 84.21118164 C-35.04013672 84.20634766 -35.04013672 84.20634766 -36.83032227 84.20141602 C-38.67787109 84.18884766 -38.67787109 84.18884766 -40.56274414 84.17602539 C-42.41609375 84.16925781 -42.41609375 84.16925781 -44.30688477 84.16235352 C-47.37138531 84.15052147 -50.43579136 84.13403712 -53.50024414 84.11352539 C-52.96869948 76.17856382 -51.40851519 68.6499354 -49.56274414 60.92602539 C-49.2978418 59.7897168 -49.03293945 58.6534082 -48.76000977 57.48266602 C-48.02501019 54.35481422 -47.27033558 51.2329034 -46.50024414 48.11352539 C-46.31316895 47.3470166 -46.12609375 46.58050781 -45.93334961 45.79077148 C-45.52189167 44.21291275 -45.02244301 42.65827267 -44.50024414 41.11352539 C-41.65488689 39.69084677 -39.13805862 39.8938067 -35.96118164 39.79711914 C-34.00825195 39.73427734 -34.00825195 39.73427734 -32.01586914 39.67016602 C-30.63566369 39.6303524 -29.25545531 39.59064017 -27.87524414 39.55102539 C-26.48720999 39.50783132 -25.09918886 39.46421674 -23.71118164 39.42016602 C-20.30764158 39.31380539 -16.90402636 39.21177825 -13.50024414 39.11352539 C-10.68886776 31.24857061 -8.76956727 23.24033147 -6.87524414 15.11352539 C-6.26219038 12.48750645 -5.64430123 9.86278323 -5.02368164 7.23852539 C-4.75475098 6.08610352 -4.48582031 4.93368164 -4.20874023 3.74633789 C-3.24018292 0.14712285 -3.24018292 0.14712285 0 0 Z " fill="#68B82E" transform="translate(97.500244140625,77.886474609375)"/>
<path d="M0 0 C1.084021 0.00523682 2.16804199 0.01047363 3.28491211 0.01586914 C4.45473633 0.0190918 5.62456055 0.02231445 6.82983398 0.02563477 C8.0615332 0.03401367 9.29323242 0.04239258 10.56225586 0.05102539 C12.41560547 0.05779297 12.41560547 0.05779297 14.30639648 0.06469727 C17.37089703 0.07652931 20.43530307 0.09301366 23.49975586 0.11352539 C24.89523709 4.29996908 23.68125388 7.69587159 22.69897461 11.86743164 C22.5025386 12.7240892 22.3061026 13.58074677 22.10371399 14.46336365 C21.68634973 16.27401121 21.26495357 18.08373342 20.83984375 19.89257812 C20.18956547 22.66617433 19.55571444 25.44316575 18.92358398 28.22094727 C18.51636151 29.97833625 18.10819029 31.73550571 17.69897461 33.49243164 C17.50929611 34.3257753 17.31961761 35.15911896 17.12419128 36.01771545 C15.72990365 41.8833776 15.72990365 41.8833776 13.49975586 44.11352539 C10.51879883 44.34057617 10.51879883 44.34057617 6.74194336 44.30883789 C6.07889191 44.306008 5.41584045 44.3031781 4.73269653 44.30026245 C2.61320003 44.28905974 0.49412482 44.2639559 -1.62524414 44.23852539 C-3.06143596 44.22849567 -4.49763439 44.2193698 -5.93383789 44.21118164 C-9.45611042 44.18912039 -12.97813618 44.15459033 -16.50024414 44.11352539 C-16.50024414 43.45352539 -16.50024414 42.79352539 -16.50024414 42.11352539 C-30.717834 41.36911113 -30.717834 41.36911113 -44.50024414 44.11352539 C-44.83024414 44.77352539 -45.16024414 45.43352539 -45.50024414 46.11352539 C-45.12524414 43.67602539 -45.12524414 43.67602539 -44.50024414 41.11352539 C-41.65488689 39.69084677 -39.13805862 39.8938067 -35.96118164 39.79711914 C-34.00825195 39.73427734 -34.00825195 39.73427734 -32.01586914 39.67016602 C-30.63566369 39.6303524 -29.25545531 39.59064017 -27.87524414 39.55102539 C-26.48720999 39.50783132 -25.09918886 39.46421674 -23.71118164 39.42016602 C-20.30764158 39.31380539 -16.90402636 39.21177825 -13.50024414 39.11352539 C-10.68886776 31.24857061 -8.76956727 23.24033147 -6.87524414 15.11352539 C-6.26219038 12.48750645 -5.64430123 9.86278323 -5.02368164 7.23852539 C-4.75475098 6.08610352 -4.48582031 4.93368164 -4.20874023 3.74633789 C-3.24018292 0.14712285 -3.24018292 0.14712285 0 0 Z " fill="#68B82E" transform="translate(97.500244140625,77.886474609375)"/>
<path d="M0 0 C0.33 0 0.66 0 1 0 C1.08333357 4.8333472 0.95261487 9.23692563 0 14 C-0.66 14 -1.32 14 -2 14 C-2 16.97 -2 19.94 -2 23 C-0.35 23 1.3 23 3 23 C2.67 23.99 2.34 24.98 2 26 C9.59 26 17.18 26 25 26 C25 26.33 25 26.66 25 27 C24.42145264 26.97268799 23.84290527 26.94537598 23.24682617 26.91723633 C11.28895237 26.13806901 11.28895237 26.13806901 0.40234375 30.09375 C-8.1746154 38.48976064 -16.15424846 50.42022704 -16.4375 62.75 C-16.27314662 70.11850984 -14.18902318 75.60544726 -9.12109375 81 C-3.19684001 86.06234574 3.68581666 88.54686587 11 91 C11 93.31 11 95.62 11 98 C0.14919746 97.7359318 -11.06840325 93.96937762 -18.83984375 86.1484375 C-25.16220986 79.24425856 -26.53768343 74.07723806 -26.37109375 64.69921875 C-24.79805998 49.01855577 -12.70331661 38.34916275 -2 28 C-2.99 27.34 -3.98 26.68 -5 26 C-4.35343144 17.10968231 -2.12977433 8.62806252 0 0 Z " fill="#0991D7" transform="translate(37,47)"/>
<path d="M0 0 C9.85769137 0.64289292 18.40369685 5.78054379 25 13 C30.38943066 19.62260547 29.81976429 27.88001895 29 36 C25.43764124 52.72657195 9.37230663 65.8268476 -4 75 C-4.66 74.67 -5.32 74.34 -6 74 C-4.83984375 72.96552734 -4.83984375 72.96552734 -3.65625 71.91015625 C13.47372356 56.62493093 13.47372356 56.62493093 21.2734375 35.5546875 C21.54907057 28.28221487 20.31448178 22.93875728 16 17 C9.9412699 10.5381943 2.24620555 7.76572891 -6 5 C-6 4.67 -6 4.34 -6 4 C-2.535 3.505 -2.535 3.505 1 3 C0.67 2.01 0.34 1.02 0 0 Z " fill="#E9891C" transform="translate(152,39)"/>
<path d="M0 0 C0.99 0.495 0.99 0.495 2 1 C-16.21592818 12.72806335 -34.74461086 21.16295046 -55.8125 26.3125 C-56.85011475 26.56725098 -57.88772949 26.82200195 -58.95678711 27.08447266 C-65.62653209 28.64437953 -72.16446316 29.57051126 -79 30 C-78.67 28.35 -78.34 26.7 -78 25 C-76.83936035 24.81993408 -76.83936035 24.81993408 -75.65527344 24.63623047 C-49.39005811 20.49994545 -24.92259135 14.65281083 -1.83666992 0.84008789 C-1.23056885 0.56285889 -0.62446777 0.28562988 0 0 Z " fill="#128FCB" transform="translate(154,116)"/>
<path d="M0 0 C0.33 0 0.66 0 1 0 C1.08333357 4.8333472 0.95261487 9.23692563 0 14 C-0.66 14 -1.32 14 -2 14 C-2 16.97 -2 19.94 -2 23 C-0.35 23 1.3 23 3 23 C2.67 23.99 2.34 24.98 2 26 C9.59 26 17.18 26 25 26 C25 26.33 25 26.66 25 27 C24.42145264 26.97268799 23.84290527 26.94537598 23.24682617 26.91723633 C11.28895237 26.13806901 11.28895237 26.13806901 0.40234375 30.09375 C-8.62831649 38.93388998 -15.77432924 50.61493853 -16.625 63.375 C-16.69976563 64.43460937 -16.77453125 65.49421875 -16.8515625 66.5859375 C-16.90054687 67.38257812 -16.94953125 68.17921875 -17 69 C-17.33 69 -17.66 69 -18 69 C-18.02690104 66.20826945 -18.04679053 63.41679652 -18.0625 60.625 C-18.07087891 59.8309375 -18.07925781 59.036875 -18.08789062 58.21875 C-18.11328125 52.2265625 -18.11328125 52.2265625 -17 50 C-17.45375 50.495 -17.9075 50.99 -18.375 51.5 C-20 53 -20 53 -22 53 C-18.27602439 42.77243062 -9.65802141 35.40875489 -2 28 C-2.99 27.34 -3.98 26.68 -5 26 C-4.35343144 17.10968231 -2.12977433 8.62806252 0 0 Z " fill="#1D8FCA" transform="translate(37,47)"/>
<path d="M0 0 C3.13686837 2.86409721 3.92004574 4.91865135 4.23828125 9.22265625 C4.55878627 25.80457409 -1.97542864 35.85924423 -13.375 47.75 C-18.17100317 52.39321015 -23.50465371 56.23029516 -29 60 C-29.66 59.67 -30.32 59.34 -31 59 C-30.2265625 58.31035156 -29.453125 57.62070313 -28.65625 56.91015625 C-11.45664805 41.62935723 -11.45664805 41.62935723 -3.76171875 20.51953125 C-3.57582099 13.73915489 -4.71751597 8.93484836 -8 3 C-6.68 2.67 -5.36 2.34 -4 2 C-3.67 2.66 -3.34 3.32 -3 4 C-3.66 4 -4.32 4 -5 4 C-4.50886719 4.97066406 -4.01773438 5.94132812 -3.51171875 6.94140625 C-1.63952577 11.30985653 -1.65580313 15.24864746 -1.8125 19.9375 C-1.83280273 21.10635742 -1.83280273 21.10635742 -1.85351562 22.29882812 C-1.88849776 24.19952404 -1.94229041 26.09985834 -2 28 C-1.34 28 -0.68 28 0 28 C0.98029565 23.09074163 1.15109725 18.41772427 1.125 13.4375 C1.12886719 12.69564453 1.13273437 11.95378906 1.13671875 11.18945312 C1.12985418 7.33499694 0.93456804 3.74568938 0 0 Z " fill="#DA8D37" transform="translate(177,54)"/>
<path d="M0 0 C3.77024548 1.25674849 5.25726534 2.56044518 7.07421875 6.08203125 C8.29583191 9.93243223 8.2918395 13.42439474 8.25 17.4375 C8.25773438 18.17548828 8.26546875 18.91347656 8.2734375 19.67382812 C8.25746713 24.16549563 7.68914015 27.7704467 6 32 C5.34 32 4.68 32 4 32 C3.95101562 30.85402344 3.90203125 29.70804688 3.8515625 28.52734375 C3.77647199 26.99737465 3.70092694 25.46742782 3.625 23.9375 C3.5940625 23.18533203 3.563125 22.43316406 3.53125 21.65820312 C3.27910084 16.80433174 2.48079692 12.62899526 1 8 C1 7.67 1 7.34 1 7 C0.01 7 -0.98 7 -2 7 C-1.125 1.125 -1.125 1.125 0 0 Z " fill="#EA891D" transform="translate(171,50)"/>
<path d="M0 0 C0.99 0.33 1.98 0.66 3 1 C2.76925781 1.82757813 2.53851563 2.65515625 2.30078125 3.5078125 C-0.16599747 12.5364176 -2.31087175 21.60240824 -4.2487793 30.76025391 C-4.44769775 31.67081543 -4.64661621 32.58137695 -4.8515625 33.51953125 C-5.02510254 34.33526611 -5.19864258 35.15100098 -5.37744141 35.99145508 C-6 38 -6 38 -8 40 C-10.61376953 40.22705078 -10.61376953 40.22705078 -13.8828125 40.1953125 C-15.04941406 40.18886719 -16.21601562 40.18242187 -17.41796875 40.17578125 C-19.25294922 40.15064453 -19.25294922 40.15064453 -21.125 40.125 C-22.35605469 40.11597656 -23.58710937 40.10695312 -24.85546875 40.09765625 C-27.90383815 40.07402548 -30.95182382 40.04108054 -34 40 C-34 38.02 -34 36.04 -34 34 C-33.67 34 -33.34 34 -33 34 C-33 35.65 -33 37.3 -33 39 C-29.41637224 38.86089513 -25.83318502 38.71254587 -22.25 38.5625 C-21.23421875 38.52318359 -20.2184375 38.48386719 -19.171875 38.44335938 C-18.1921875 38.40146484 -17.2125 38.35957031 -16.203125 38.31640625 C-15.30239258 38.27974854 -14.40166016 38.24309082 -13.47363281 38.20532227 C-11.20403661 38.01693593 -9.18437113 37.62633499 -7 37 C-7.020625 35.700625 -7.04125 34.40125 -7.0625 33.0625 C-7.08399454 31.70834367 -7.07148199 30.35243917 -7 29 C-6.67 28.67 -6.34 28.34 -6 28 C-5.60430892 25.98688551 -5.25747809 23.96402792 -4.9375 21.9375 C-4.76089844 20.83277344 -4.58429688 19.72804687 -4.40234375 18.58984375 C-4.26957031 17.73519531 -4.13679688 16.88054687 -4 16 C-4.66 16 -5.32 16 -6 16 C-6 14.68 -6 13.36 -6 12 C-4.35 11.67 -2.7 11.34 -1 11 C-1.020625 10.05125 -1.04125 9.1025 -1.0625 8.125 C-1 5 -1 5 0 3 C-0.66 2.67 -1.32 2.34 -2 2 C-1.34 1.34 -0.68 0.68 0 0 Z " fill="#6EAE49" transform="translate(78,122)"/>
<path d="M0 0 C1.125 3.75 1.125 3.75 0 6 C-0.07194869 8.88370333 -0.09291708 11.74239664 -0.0625 14.625 C-0.05573242 15.82769531 -0.05573242 15.82769531 -0.04882812 17.0546875 C-0.03703168 19.03649006 -0.01909605 21.01825433 0 23 C2.31 23 4.62 23 7 23 C6.79375 23.886875 6.5875 24.77375 6.375 25.6875 C5.82490373 30.54668371 7.34377069 33.01565604 10 37 C6.69777222 35.58164226 4.72376959 33.89324118 2.375 31.1875 C1.78460937 30.52105469 1.19421875 29.85460937 0.5859375 29.16796875 C-4.11340145 22.74399555 -3.59415376 15.65511153 -3 8 C-2.26287546 5.06428434 -1.31603601 2.74174169 0 0 Z " fill="#198ECA" transform="translate(14,100)"/>
<path d="M0 0 C7.92 0 15.84 0 24 0 C25.32740757 3.98222271 24.2977071 6.99348392 23.34765625 10.94921875 C23.16867294 11.72183548 22.98968964 12.49445221 22.80528259 13.29048157 C22.23184801 15.75797331 21.64732636 18.22268609 21.0625 20.6875 C20.6717931 22.35985498 20.28181016 24.03237927 19.89257812 25.70507812 C18.93677526 29.80539742 17.97102081 33.90325908 17 38 C16.67 38 16.34 38 16 38 C15.97310784 36.52093108 15.95365379 35.04172517 15.9375 33.5625 C15.92589844 32.73878906 15.91429688 31.91507813 15.90234375 31.06640625 C16 29 16 29 17 28 C16.9909385 24.92361996 16.86674942 21.85890469 16.7421875 18.78515625 C16.82726562 17.86605469 16.91234375 16.94695312 17 16 C17.99 15.34 18.98 14.68 20 14 C20.80336113 11.12240932 20.80336113 11.12240932 21.1875 7.875 C21.455625 5.93625 21.72375 3.9975 22 2 C14.74 1.67 7.48 1.34 0 1 C0 0.67 0 0.34 0 0 Z " fill="#76AE45" transform="translate(97,78)"/>
<path d="M0 0 C0 3 0 3 -1 5 C7.91 4.67 16.82 4.34 26 4 C26 2.68 26 1.36 26 0 C26.66 0 27.32 0 28 0 C27.125 4.875 27.125 4.875 26 6 C23.78144736 6.08783542 21.56011504 6.10694609 19.33984375 6.09765625 C18.34314415 6.09553383 18.34314415 6.09553383 17.3263092 6.09336853 C15.19666101 6.08775518 13.06711661 6.07520054 10.9375 6.0625 C9.49674631 6.05748671 8.05599097 6.05292351 6.61523438 6.04882812 C3.07678898 6.03778145 -0.46159539 6.02050792 -4 6 C-4 5.34 -4 4.68 -4 4 C-18.21758985 3.25558573 -18.21758985 3.25558573 -32 6 C-32.33 6.66 -32.66 7.32 -33 8 C-32.625 5.5625 -32.625 5.5625 -32 3 C-29.1598139 1.57990695 -26.66777359 1.7989431 -23.49609375 1.71875 C-22.19865234 1.68136719 -20.90121094 1.64398438 -19.56445312 1.60546875 C-17.49490062 1.55175254 -15.42531065 1.49969409 -13.35571289 1.44775391 C-11.36073566 1.39613313 -9.36590923 1.33878322 -7.37109375 1.28125 C-5.5756311 1.23581055 -5.5756311 1.23581055 -3.74389648 1.18945312 C-1.08899875 1.3079057 -1.08899875 1.3079057 0 0 Z " fill="#75AF50" transform="translate(85,116)"/>
<path d="M0 0 C0.66 0.33 1.32 0.66 2 1 C-26.86104473 19.58176852 -26.86104473 19.58176852 -35.3125 18.625 C-36.199375 18.41875 -37.08625 18.2125 -38 18 C-35.51159369 16.34106246 -33.60634377 15.37077119 -30.859375 14.3359375 C-30.04259277 14.02197021 -29.22581055 13.70800293 -28.38427734 13.38452148 C-27.51496582 13.05137939 -26.6456543 12.7182373 -25.75 12.375 C-18.36350926 9.5041128 -11.35848419 6.31756554 -4.49511719 2.35107422 C-3.02555798 1.51460079 -1.51582693 0.74937359 0 0 Z " fill="#2B8BB9" transform="translate(154,116)"/>
<path d="M0 0 C0.66 0.66 1.32 1.32 2 2 C1.45698242 2.13051758 0.91396484 2.26103516 0.35449219 2.39550781 C-9.91218841 4.87636884 -20.06319485 7.38478024 -30 11 C-30 10.01 -30 9.02 -30 8 C-26.98076952 6.87066607 -23.95933893 5.74733369 -20.9375 4.625 C-20.08994141 4.30789062 -19.24238281 3.99078125 -18.36914062 3.6640625 C-3.85789885 -1.71462171 -3.85789885 -1.71462171 0 0 Z " fill="#D68935" transform="translate(94,42)"/>
<path d="M0 0 C1 4 1 4 -1 14 C8.9 14.33 18.8 14.66 29 15 C29 17.64 29 20.28 29 23 C28.34 23.66 27.68 24.32 27 25 C27 22.36 27 19.72 27 17 C17.43 17 7.86 17 -2 17 C-3.83517788 13.32964424 -2.62047868 8.95244918 -2 5 C-0.9375 1.875 -0.9375 1.875 0 0 Z " fill="#E19039" transform="translate(126,55)"/>
<path d="M0 0 C5.77378925 0.4811491 9.95859836 2.18467181 15 5 C11.34811918 6.07174763 8.73567172 5.76411467 5 5 C5 5.66 5 6.32 5 7 C6.32 7.33 7.64 7.66 9 8 C9 8.66 9 9.32 9 10 C4 8.33333333 -1 6.66666667 -6 5 C-6 4.67 -6 4.34 -6 4 C-2.535 3.505 -2.535 3.505 1 3 C0.67 2.01 0.34 1.02 0 0 Z " fill="#E38C2C" transform="translate(152,39)"/>
<path d="M0 0 C0.99 0.33 1.98 0.66 3 1 C2.505 1.70125 2.01 2.4025 1.5 3.125 C-0.1936681 6.37119719 -0.25162315 8.39340156 0 12 C-0.99 12 -1.98 12 -3 12 C-2.938125 13.423125 -2.938125 13.423125 -2.875 14.875 C-3 18 -3 18 -5 20 C-4.67 17.69 -4.34 15.38 -4 13 C-7.3 13 -10.6 13 -14 13 C-13.34 12.67 -12.68 12.34 -12 12 C-12 11.34 -12 10.68 -12 10 C-7.545 9.505 -7.545 9.505 -3 9 C-2.690625 7.700625 -2.38125 6.40125 -2.0625 5.0625 C-1.125 1.125 -1.125 1.125 0 0 Z " fill="#DF8A2F" transform="translate(106,30)"/>
<path d="M0 0 C1.32 0.33 2.64 0.66 4 1 C3.67 3.97 3.34 6.94 3 10 C2.67 8.68 2.34 7.36 2 6 C1.113125 6.495 0.22625 6.99 -0.6875 7.5 C-3.87586238 8.94378674 -5.58187546 9.30159922 -9 9 C-9 6 -9 6 -7.5 4.4375 C-7.005 3.963125 -6.51 3.48875 -6 3 C-6 2.34 -6 1.68 -6 1 C-4.02 1 -2.04 1 0 1 C0 0.67 0 0.34 0 0 Z " fill="#0F8EC9" transform="translate(60,49)"/>
<path d="M0 0 C8.58 0 17.16 0 26 0 C27 4 27 4 26.0625 6.25 C25.5365625 7.11625 25.5365625 7.11625 25 8 C24.67 6.02 24.34 4.04 24 2 C20.56265937 1.91296177 17.12560163 1.85959728 13.6875 1.8125 C12.71103516 1.78736328 11.73457031 1.76222656 10.72851562 1.73632812 C9.79072266 1.72666016 8.85292969 1.71699219 7.88671875 1.70703125 C7.02264404 1.6913208 6.15856934 1.67561035 5.26831055 1.65942383 C2.49738571 2.07546517 1.65690375 2.77687875 0 5 C-0.79468051 7.95521077 -0.79468051 7.95521077 -1.1875 11.1875 C-1.34605469 12.27417969 -1.50460938 13.36085938 -1.66796875 14.48046875 C-1.77753906 15.31191406 -1.88710938 16.14335938 -2 17 C-2.66 17 -3.32 17 -4 17 C-3.42521361 10.67734974 -2.0883233 6.26496991 0 0 Z " fill="#1B8DC7" transform="translate(42,30)"/>
<path d="M0 0 C0 0.66 0 1.32 0 2 C-2.41267325 2.867242 -4.82904469 3.71896936 -7.25 4.5625 C-7.93191406 4.80935547 -8.61382812 5.05621094 -9.31640625 5.31054688 C-15.58342161 7.47053761 -15.58342161 7.47053761 -19 6 C-18.34 6 -17.68 6 -17 6 C-17 5.34 -17 4.68 -17 4 C-17.66 3.67 -18.32 3.34 -19 3 C-6.51480638 -0.44419134 -6.51480638 -0.44419134 0 0 Z " fill="#1D8DC2" transform="translate(119,134)"/>
<path d="M0 0 C0.33 0 0.66 0 1 0 C1.33 3.63 1.66 7.26 2 11 C1.34 11 0.68 11 0 11 C-1.04367594 15.04867498 -1.80372648 19.14027932 -2.5625 23.25 C-2.70107422 23.99507812 -2.83964844 24.74015625 -2.98242188 25.5078125 C-3.32271188 27.33833802 -3.66150413 29.16914186 -4 31 C-4.66 31 -5.32 31 -6 31 C-6.33 31.99 -6.66 32.98 -7 34 C-6.28418236 26.67872592 -4.63081979 19.65044553 -2.9375 12.5 C-2.65583984 11.29601562 -2.37417969 10.09203125 -2.08398438 8.8515625 C-1.39298183 5.90016178 -0.69822701 2.94969839 0 0 Z " fill="#69A948" transform="translate(93,82)"/>
<path d="M0 0 C0.10251672 5.12583611 0.03590199 9.94997778 -1 15 C-1.66 15 -2.32 15 -3 15 C-3 12.36 -3 9.72 -3 7 C-2.34 7 -1.68 7 -1 7 C-1 6.34 -1 5.68 -1 5 C-1.68707031 5 -2.37414063 5 -3.08203125 5 C-6.72135417 5 -10.36067708 5 -14 5 C-13.67 4.01 -13.34 3.02 -13 2 C-11.3603125 2.061875 -11.3603125 2.061875 -9.6875 2.125 C-5.59988802 1.98643688 -3.96346768 0 0 0 Z " fill="#0692D9" transform="translate(62,55)"/>
<path d="M0 0 C3.3 0.99 6.6 1.98 10 3 C10 4.32 10 5.64 10 7 C7.36 7 4.72 7 2 7 C2 6.01 2 5.02 2 4 C0.68 4.33 -0.64 4.66 -2 5 C-2 2 -2 2 0 0 Z " fill="#0492DB" transform="translate(37,136)"/>
<path d="M0 0 C0.66 0.66 1.32 1.32 2 2 C1.96712417 4.72869407 1.43602229 7.2966618 1 10 C1.66 10.33 2.32 10.66 3 11 C3 11.99 3 12.98 3 14 C1.35 14.66 -0.3 15.32 -2 16 C-2 17.65 -2 19.3 -2 21 C-2.66 21 -3.32 21 -4 21 C-2.98208077 13.89622327 -1.90094901 6.92488567 0 0 Z " fill="#65B14B" transform="translate(51,126)"/>
<path d="M0 0 C2.88437779 1.29299694 4.87219421 2.65941363 7 5 C6.67 5.66 6.34 6.32 6 7 C5.01 6.34 4.02 5.68 3 5 C2.34 4.67 1.68 4.34 1 4 C0.34 5.65 -0.32 7.3 -1 9 C-3.64 7.02 -6.28 5.04 -9 3 C-5.93109813 1.46554906 -3.29905734 2.45015711 0 3 C0 2.01 0 1.02 0 0 Z " fill="#DE8C2F" transform="translate(170,47)"/>
<path d="M0 0 C0.99 0.33 1.98 0.66 3 1 C-1.34791253 6.99712073 -6.94293949 10.82052217 -13 15 C-13.66 14.67 -14.32 14.34 -15 14 C-14.16855469 13.24074219 -13.33710938 12.48148438 -12.48046875 11.69921875 C-11.38277925 10.69534886 -10.28512484 9.6914406 -9.1875 8.6875 C-8.64029297 8.18798828 -8.09308594 7.68847656 -7.52929688 7.17382812 C-4.96878163 4.83056872 -2.42060466 2.48855146 0 0 Z " fill="#CD9054" transform="translate(161,99)"/>
<path d="M0 0 C0.33 0.66 0.66 1.32 1 2 C1.66 2 2.32 2 3 2 C3 1.34 3 0.68 3 0 C3.66 0 4.32 0 5 0 C4.48517081 5.852795 3.54642808 11.3297637 2 17 C1.67 17 1.34 17 1 17 C1.02320312 16.32453125 1.04640625 15.6490625 1.0703125 14.953125 C1.09738281 13.61507812 1.09738281 13.61507812 1.125 12.25 C1.15980469 10.92742187 1.15980469 10.92742187 1.1953125 9.578125 C1.16258075 6.98768328 1.16258075 6.98768328 -0.0703125 4.859375 C-0.37710938 4.24578125 -0.68390625 3.6321875 -1 3 C-0.67 2.01 -0.34 1.02 0 0 Z " fill="#1691C8" transform="translate(82,90)"/>
<path d="M0 0 C0.33 0 0.66 0 1 0 C1.66 3.3 2.32 6.6 3 10 C1.68 10.33 0.36 10.66 -1 11 C-0.67 12.65 -0.34 14.3 0 16 C-0.99 16 -1.98 16 -3 16 C-2.68954268 14.0830014 -2.37655329 12.16641277 -2.0625 10.25 C-1.88847656 9.18265625 -1.71445313 8.1153125 -1.53515625 7.015625 C-1.11295829 4.63652407 -0.62797116 2.33084789 0 0 Z " fill="#DE8C2E" transform="translate(124,85)"/>
<path d="M0 0 C0.66 0.33 1.32 0.66 2 1 C-0.03971112 2.27406288 -2.08165264 3.54429202 -4.125 4.8125 C-4.69476563 5.16892578 -5.26453125 5.52535156 -5.8515625 5.89257812 C-9.47938085 8.13935199 -13.15629859 10.14824719 -17 12 C-17 11.01 -17 10.02 -17 9 C-14.21526125 7.46621464 -11.42121662 5.9502442 -8.625 4.4375 C-7.8309375 3.99986328 -7.036875 3.56222656 -6.21875 3.11132812 C-5.45820313 2.70205078 -4.69765625 2.29277344 -3.9140625 1.87109375 C-2.8614624 1.29766235 -2.8614624 1.29766235 -1.78759766 0.71264648 C-1.19769043 0.47747314 -0.6077832 0.2422998 0 0 Z " fill="#4A87A6" transform="translate(154,116)"/>
<path d="M0 0 C4.16138263 -0.08159574 7.9472484 0.01751476 12 1 C12 1.33 12 1.66 12 2 C9.03 2 6.06 2 3 2 C3.33 3.32 3.66 4.64 4 6 C1.03 5.67 -1.94 5.34 -5 5 C-5 4.67 -5 4.34 -5 4 C-3.35 4 -1.7 4 0 4 C0 2.68 0 1.36 0 0 Z " fill="#DB8D37" transform="translate(140,37)"/>
<path d="M0 0 C0.99 0 1.98 0 3 0 C3 2.31 3 4.62 3 7 C-2.60461531 6.57910004 -7.72086547 6.08386889 -13 4 C-13 3.67 -13 3.34 -13 3 C-9.535 2.505 -9.535 2.505 -6 2 C-6 2.99 -6 3.98 -6 5 C-3.36 5 -0.72 5 2 5 C2 3.68 2 2.36 2 1 C1.34 0.67 0.68 0.34 0 0 Z " fill="#1A92BF" transform="translate(45,138)"/>
<path d="M0 0 C1 3 1 3 0.0625 5.1875 C-0.4634375 6.0846875 -0.4634375 6.0846875 -1 7 C-0.34 7 0.32 7 1 7 C1 6.34 1 5.68 1 5 C1.66 5 2.32 5 3 5 C3 5.99 3 6.98 3 8 C-0.63 8 -4.26 8 -8 8 C-5.33333333 5.33333333 -2.66666667 2.66666667 0 0 Z " fill="#1090CC" transform="translate(55,105)"/>
<path d="M0 0 C1.98 0.495 1.98 0.495 4 1 C4 1.33 4 1.66 4 2 C7.63 2 11.26 2 15 2 C15 2.33 15 2.66 15 3 C9.72 3.66 4.44 4.32 -1 5 C-0.67 3.35 -0.34 1.7 0 0 Z " fill="#208DB7" transform="translate(76,141)"/>
<path d="M0 0 C2 3 2 3 1.6875 6.625 C1 10 1 10 0 11 C-0.36760731 13.32817964 -0.70241581 15.6618385 -1 18 C-1.99 18.33 -2.98 18.66 -4 19 C-2.02 9.595 -2.02 9.595 0 0 Z " fill="#1D8DC8" transform="translate(60,86)"/>
<path d="M0 0 C-2.31 2.31 -4.62 4.62 -7 7 C-7.33 6.34 -7.66 5.68 -8 5 C-8.66 4.67 -9.32 4.34 -10 4 C-4.7704918 -1.59016393 -4.7704918 -1.59016393 0 0 Z " fill="#2A90C1" transform="translate(41,75)"/>
<path d="M0 0 C-0.33 2.97 -0.66 5.94 -1 9 C-1.33 7.68 -1.66 6.36 -2 5 C-5.3 5.66 -8.6 6.32 -12 7 C-2.66666667 0 -2.66666667 0 0 0 Z " fill="#3993B6" transform="translate(64,50)"/>
<path d="M0 0 C-2.6860286 1.79068573 -4.6626589 2.66055791 -7.6875 3.625 C-8.49574219 3.88539062 -9.30398437 4.14578125 -10.13671875 4.4140625 C-10.75160156 4.60742188 -11.36648437 4.80078125 -12 5 C-12 4.01 -12 3.02 -12 2 C-4.71428571 -1.57142857 -4.71428571 -1.57142857 0 0 Z " fill="#BA935C" transform="translate(76,48)"/>
<path d="M0 0 C6.07328688 -0.50610724 9.77228537 0.95842058 15 4 C15 4.66 15 5.32 15 6 C10 4.33333333 5 2.66666667 0 1 C0 0.67 0 0.34 0 0 Z " fill="#D88F3B" transform="translate(146,43)"/>
<path d="M0 0 C0.33 0 0.66 0 1 0 C1.66 2.31 2.32 4.62 3 7 C2.34 7 1.68 7 1 7 C1 7.66 1 8.32 1 9 C0.34 9 -0.32 9 -1 9 C-1 10.65 -1 12.3 -1 14 C-1.33 14 -1.66 14 -2 14 C-1.85795259 12.41632253 -1.71119847 10.83306682 -1.5625 9.25 C-1.48128906 8.36828125 -1.40007812 7.4865625 -1.31640625 6.578125 C-1.03761535 4.30649548 -0.61209423 2.20148177 0 0 Z " fill="#D78D3A" transform="translate(98,59)"/>
<path d="M0 0 C0.33 0 0.66 0 1 0 C0.67 4.29 0.34 8.58 0 13 C-0.66 13 -1.32 13 -2 13 C-2 10.36 -2 7.72 -2 5 C-1.34 5 -0.68 5 0 5 C0 3.35 0 1.7 0 0 Z " fill="#178DCD" transform="translate(61,57)"/>
<path d="M0 0 C0.33 0.66 0.66 1.32 1 2 C1.66 2.33 2.32 2.66 3 3 C1.68 4.32 0.36 5.64 -1 7 C-1.99 6.67 -2.98 6.34 -4 6 C-2.68 4.02 -1.36 2.04 0 0 Z " fill="#D38938" transform="translate(166,93)"/>
<path d="M0 0 C3.3 0 6.6 0 10 0 C10 0.33 10 0.66 10 1 C8.93458984 1.18175781 8.93458984 1.18175781 7.84765625 1.3671875 C6.92855469 1.53476563 6.00945313 1.70234375 5.0625 1.875 C4.14597656 2.03742188 3.22945312 2.19984375 2.28515625 2.3671875 C1.53105469 2.57601562 0.77695312 2.78484375 0 3 C-0.33 3.66 -0.66 4.32 -1 5 C-0.67 3.35 -0.34 1.7 0 0 Z " fill="#6DAD45" transform="translate(53,119)"/>
<path d="M0 0 C0 0.66 0 1.32 0 2 C0.66 2.33 1.32 2.66 2 3 C-0.8125 3.6875 -0.8125 3.6875 -4 4 C-5.875 2.5625 -5.875 2.5625 -7 1 C-4.50935112 0.31292445 -2.62113708 0 0 0 Z " fill="#298FB8" transform="translate(112,135)"/>
<path d="M0 0 C0.268125 0.5775 0.53625 1.155 0.8125 1.75 C2.01719859 4.0325868 3.40798115 5.9737942 5 8 C1.63279613 6.60667426 0.0140476 5.0210714 -2 2 C-1.34 1.34 -0.68 0.68 0 0 Z " fill="#1B8BC2" transform="translate(19,129)"/>
<path d="M0 0 C0 3 0 3 -1 5 C-3.64 4.34 -6.28 3.68 -9 3 C-9 2.67 -9 2.34 -9 2 C-6.94921875 1.77213542 -4.8984375 1.54427083 -2.84765625 1.31640625 C-0.98859771 1.18113386 -0.98859771 1.18113386 0 0 Z " fill="#6BA947" transform="translate(85,116)"/>
<path d="M0 0 C-3.13498292 1.85776765 -5.37471432 2.20140476 -9 2 C-9 1.34 -9 0.68 -9 0 C-5.52176885 -1.15941038 -3.54104422 -0.70820884 0 0 Z " fill="#CC8A3F" transform="translate(83,46)"/>
<path d="" fill="#767689" transform="translate(0,0)"/>
</svg>
